<svg version="1.2" xmlns="http://www.w3.org/2000/svg" viewBox="0 0 16 16" width="16" height="16">
	<title>youtube-svg</title>
	<style>
		.s0 { fill: #ffffff } 
	</style>
	<path id="Layer" fill-rule="evenodd" class="s0" d="m8.1 2c0.9 0 5 0 6.2 0.3q0.2 0.1 0.4 0.2 0.3 0.2 0.4 0.4 0.2 0.1 0.4 0.4 0.1 0.2 0.2 0.5c0.1 0.3 0.1 0.8 0.2 1.4v0.1 0.2 0.1c0.1 0.9 0.1 1.8 0.1 2v0.1c0 0.1 0 1.1-0.1 2v0.1 0.1c-0.1 0.6-0.1 1.2-0.2 1.6q-0.1 0.2-0.2 0.5-0.2 0.2-0.4 0.4-0.1 0.2-0.4 0.3-0.2 0.1-0.4 0.2c-1.2 0.3-5.6 0.3-6.2 0.3h-0.2c-0.3 0-1.6 0-2.9 0h-0.2-0.1-0.3c-1.1-0.1-2.2-0.2-2.7-0.3q-0.2-0.1-0.4-0.2-0.3-0.1-0.4-0.3-0.2-0.2-0.4-0.4-0.1-0.3-0.2-0.5c-0.1-0.4-0.2-1-0.2-1.6v-0.1-0.1q0-0.2-0.1-0.5 0-0.2 0-0.5 0-0.3 0-0.5 0-0.3 0-0.5v-0.1c0-0.3 0-1 0.1-1.8v-0.1-0.1-0.1-0.2-0.1c0.1-0.6 0.1-1.1 0.2-1.4q0.1-0.3 0.2-0.5 0.2-0.3 0.4-0.4 0.1-0.2 0.4-0.4 0.2-0.1 0.4-0.2c0.5-0.1 1.6-0.2 2.7-0.2h0.2 0.2 0.2q0.4-0.1 0.7-0.1 0.4 0 0.7 0 0.4 0 0.7 0 0.4 0 0.8 0zm-1.7 3.2v4.8l4.2-2.4z"/>
</svg>